<svg width="1200" height="537" viewBox="0 0 1200 537" fill="none" xmlns="http://www.w3.org/2000/svg">
<g clip-path="url(#clip0_6_253)">
<rect width="1200" height="537" fill="#00FF0C"/>
<g filter="url(#filter0_df_6_253)">
<path d="M42.9999 352C124.2 112.4 312.167 -1.83334 396 -29C622 -189.344 431.5 -191 406 -201.5C380.5 -212 246 -199 170 -191C94 -183 20.5 -155.5 -101.5 -72C-223.5 11.5 -200.5 57.5 -340 644C-479.5 1230.5 -284.5 1017 -269 1078C-253.5 1139 523 1481.5 431.5 1370C340 1258.5 -58.5001 651.5 42.9999 352Z" fill="#00F70C"/>
</g>
<g filter="url(#filter1_df_6_253)">
<path d="M1236.47 617.448C1379.89 774.696 1303.89 517.14 1502.04 675.592C1571.45 934.643 1654.65 822.691 1668.18 820.402C1681.72 818.113 1716.48 769.421 1735.78 741.557C1755.08 713.693 1763.15 676.161 1756.29 593.593C1749.43 511.026 1717.66 493.528 1446.86 136.166C1176.06 -221.197 1229.89 -46.3625 1192.42 -74.2199C1154.94 -102.077 730.606 -44.5715 818.705 -13.2505C906.804 18.0704 992.816 350.301 1236.47 617.448Z" fill="#00EA0B"/>
</g>
</g>
<defs>
<filter id="filter0_df_6_253" x="-428.008" y="-280.427" width="1031.29" height="1733.58" filterUnits="userSpaceOnUse" color-interpolation-filters="sRGB">
<feFlood flood-opacity="0" result="BackgroundImageFix"/>
<feColorMatrix in="SourceAlpha" type="matrix" values="0 0 0 0 0 0 0 0 0 0 0 0 0 0 0 0 0 0 127 0" result="hardAlpha"/>
<feOffset dx="30" dy="-7"/>
<feGaussianBlur stdDeviation="34"/>
<feComposite in2="hardAlpha" operator="out"/>
<feColorMatrix type="matrix" values="0 0 0 0 0.00392157 0 0 0 0 1 0 0 0 0 0.0509804 0 0 0 1 0"/>
<feBlend mode="normal" in2="BackgroundImageFix" result="effect1_dropShadow_6_253"/>
<feBlend mode="normal" in="SourceGraphic" in2="effect1_dropShadow_6_253" result="shape"/>
<feGaussianBlur stdDeviation="1.5" result="effect2_foregroundBlur_6_253"/>
</filter>
<filter id="filter1_df_6_253" x="689.698" y="-196.967" width="1202.01" height="1189.37" filterUnits="userSpaceOnUse" color-interpolation-filters="sRGB">
<feFlood flood-opacity="0" result="BackgroundImageFix"/>
<feColorMatrix in="SourceAlpha" type="matrix" values="0 0 0 0 0 0 0 0 0 0 0 0 0 0 0 0 0 0 127 0" result="hardAlpha"/>
<feOffset dx="8" dy="21"/>
<feGaussianBlur stdDeviation="62.5"/>
<feComposite in2="hardAlpha" operator="out"/>
<feColorMatrix type="matrix" values="0 0 0 0 0 0 0 0 0 0.733333 0 0 0 0 0.0345098 0 0 0 1 0"/>
<feBlend mode="normal" in2="BackgroundImageFix" result="effect1_dropShadow_6_253"/>
<feBlend mode="normal" in="SourceGraphic" in2="effect1_dropShadow_6_253" result="shape"/>
<feGaussianBlur stdDeviation="1.5" result="effect2_foregroundBlur_6_253"/>
</filter>
<clipPath id="clip0_6_253">
<rect width="1200" height="537" fill="white"/>
</clipPath>
</defs>
</svg>
